<svg width="84" height="90" viewBox="0 0 84 90" fill="none" xmlns="http://www.w3.org/2000/svg">
<path fill-rule="evenodd" clip-rule="evenodd" d="M0 89.6H39.168C45.568 89.6 51.4133 88.576 56.704 86.528C62.08 84.48 66.4747 81.7493 69.888 78.336C73.3013 74.8373 76.16 70.8693 78.464 66.432C80.8533 61.9093 82.2613 57.1733 82.688 52.224C83.2 47.2747 83.1573 42.3253 82.56 37.376C82.048 32.4267 80.5547 27.7333 78.08 23.296C75.6907 18.7733 72.7893 14.8053 69.376 11.392C65.9627 7.89334 61.6107 5.12 56.32 3.072C51.1147 1.024 45.3973 0 39.168 0H0V14.208H37.76C43.9893 14.208 49.3653 15.744 53.888 18.816C58.4107 21.8027 61.6533 25.5573 63.616 30.08C65.5787 34.6027 66.4747 39.5093 66.304 44.8C66.2187 50.0907 65.1093 54.9973 62.976 59.52C60.928 64.0427 57.6853 67.84 53.248 70.912C48.8107 73.8987 43.648 75.392 37.76 75.392H14.208V37.76H0V89.6Z" fill="white"/>
</svg>
